# xmcd
#
# Track frame offsets:
#	150
#	6616
#	21392
#	31821
#	45443
#	55291
#	87176
#	108630
#	122334
#	154569
#	167825
#	185421
#	201092
#	223881
#	245736
#	274692
#	293716
#	311893
#	329869
#	348316
#
# Disc length: 4876 seconds
#
# Revision: 1
# Processed by: cddbd v1.5.2PL0 Copyright (c) Steve Scherf et al.
# Submitted via: audiograbber 1.83.01
#
DISCID=2e130a14
DTITLE=NUCLEO SER - CD 01
DYEAR=1900
DGENRE=
TTITLE0=2001 A Space Odissey
TTITLE1=Hooked On Classics
TTITLE2=What A Wonderful World
TTITLE3=Imagine
TTITLE4=Forest Gump Suite
TTITLE5=We Are The World
TTITLE6=Stayin' Alive
TTITLE7=Cancion De Cuna Op. 49
TTITLE8=The Light Of The Spirit
TTITLE9=Epitáfio
TTITLE10=Canção Da América
TTITLE11=Como Uma Onda
TTITLE12=Pai
TTITLE13=Conquest Of Paradise
TTITLE14=Heal The World
TTITLE15=Como é Grande o Meu Amor Por Você
TTITLE16=Emoções
TTITLE17=Titans
TTITLE18=Tindolelê
TTITLE19=Libera geral
EXTD=
EXTT0=
EXTT1=
EXTT2=
EXTT3=
EXTT4=
EXTT5=
EXTT6=
EXTT7=
EXTT8=
EXTT9=
EXTT10=
EXTT11=
EXTT12=
EXTT13=
EXTT14=
EXTT15=
EXTT16=
EXTT17=
EXTT18=
EXTT19=
PLAYORDER=
